<mxfile host="app.diagrams.net" agent="Mozilla/5.0 (Windows NT 10.0; Win64; x64) AppleWebKit/537.36 (KHTML, like Gecko) Chrome/130.0.0.0 Safari/537.36 Edg/130.0.0.0" version="24.8.4">
  <diagram id="C5RBs43oDa-KdzZeNtuy" name="Page-1">
    <mxGraphModel dx="1130" dy="613" grid="0" gridSize="10" guides="1" tooltips="1" connect="1" arrows="1" fold="1" page="0" pageScale="1" pageWidth="827" pageHeight="1169" math="0" shadow="0">
      <root>
        <mxCell id="WIyWlLk6GJQsqaUBKTNV-0" />
        <mxCell id="WIyWlLk6GJQsqaUBKTNV-1" parent="WIyWlLk6GJQsqaUBKTNV-0" />
        <mxCell id="SQ17vIQTswVS2YfYGv-e-7" value="方案一" style="swimlane;whiteSpace=wrap;html=1;" parent="WIyWlLk6GJQsqaUBKTNV-1" vertex="1">
          <mxGeometry x="320" y="40" width="200" height="322" as="geometry" />
        </mxCell>
        <mxCell id="SQ17vIQTswVS2YfYGv-e-1" style="edgeStyle=orthogonalEdgeStyle;rounded=0;orthogonalLoop=1;jettySize=auto;html=1;entryX=0.5;entryY=0;entryDx=0;entryDy=0;" parent="SQ17vIQTswVS2YfYGv-e-7" source="WIyWlLk6GJQsqaUBKTNV-3" target="WIyWlLk6GJQsqaUBKTNV-7" edge="1">
          <mxGeometry relative="1" as="geometry" />
        </mxCell>
        <mxCell id="WIyWlLk6GJQsqaUBKTNV-3" value="大數據平台" style="rounded=1;whiteSpace=wrap;html=1;fontSize=12;glass=0;strokeWidth=1;shadow=0;fillColor=#dae8fc;strokeColor=#6c8ebf;" parent="SQ17vIQTswVS2YfYGv-e-7" vertex="1">
          <mxGeometry x="40" y="50" width="120" height="40" as="geometry" />
        </mxCell>
        <mxCell id="SQ17vIQTswVS2YfYGv-e-5" style="edgeStyle=orthogonalEdgeStyle;rounded=0;orthogonalLoop=1;jettySize=auto;html=1;" parent="SQ17vIQTswVS2YfYGv-e-7" source="WIyWlLk6GJQsqaUBKTNV-7" target="SQ17vIQTswVS2YfYGv-e-2" edge="1">
          <mxGeometry relative="1" as="geometry" />
        </mxCell>
        <mxCell id="WIyWlLk6GJQsqaUBKTNV-7" value="omework" style="rounded=1;whiteSpace=wrap;html=1;fontSize=12;glass=0;strokeWidth=1;shadow=0;fillColor=#d5e8d4;strokeColor=#82b366;" parent="SQ17vIQTswVS2YfYGv-e-7" vertex="1">
          <mxGeometry x="40" y="120" width="120" height="40" as="geometry" />
        </mxCell>
        <mxCell id="SQ17vIQTswVS2YfYGv-e-6" style="edgeStyle=orthogonalEdgeStyle;rounded=0;orthogonalLoop=1;jettySize=auto;html=1;" parent="SQ17vIQTswVS2YfYGv-e-7" source="SQ17vIQTswVS2YfYGv-e-2" target="SQ17vIQTswVS2YfYGv-e-3" edge="1">
          <mxGeometry relative="1" as="geometry" />
        </mxCell>
        <mxCell id="SQ17vIQTswVS2YfYGv-e-2" value="sapgateway" style="rounded=1;whiteSpace=wrap;html=1;fontSize=12;glass=0;strokeWidth=1;shadow=0;fillColor=#fff2cc;strokeColor=#d6b656;" parent="SQ17vIQTswVS2YfYGv-e-7" vertex="1">
          <mxGeometry x="40" y="190" width="120" height="40" as="geometry" />
        </mxCell>
        <mxCell id="SQ17vIQTswVS2YfYGv-e-3" value="sap&amp;nbsp;byd" style="rounded=1;whiteSpace=wrap;html=1;fontSize=12;glass=0;strokeWidth=1;shadow=0;fillColor=#ffe6cc;strokeColor=#d79b00;" parent="SQ17vIQTswVS2YfYGv-e-7" vertex="1">
          <mxGeometry x="40" y="260" width="120" height="40" as="geometry" />
        </mxCell>
        <mxCell id="SQ17vIQTswVS2YfYGv-e-8" value="方案二" style="swimlane;whiteSpace=wrap;html=1;" parent="WIyWlLk6GJQsqaUBKTNV-1" vertex="1">
          <mxGeometry x="560" y="40" width="200" height="322" as="geometry" />
        </mxCell>
        <mxCell id="SQ17vIQTswVS2YfYGv-e-10" value="大數據平台" style="rounded=1;whiteSpace=wrap;html=1;fontSize=12;glass=0;strokeWidth=1;shadow=0;fillColor=#dae8fc;strokeColor=#6c8ebf;" parent="SQ17vIQTswVS2YfYGv-e-8" vertex="1">
          <mxGeometry x="40" y="50" width="120" height="40" as="geometry" />
        </mxCell>
        <mxCell id="SQ17vIQTswVS2YfYGv-e-11" style="edgeStyle=orthogonalEdgeStyle;rounded=0;orthogonalLoop=1;jettySize=auto;html=1;exitX=0.5;exitY=1;exitDx=0;exitDy=0;" parent="SQ17vIQTswVS2YfYGv-e-8" source="SQ17vIQTswVS2YfYGv-e-10" target="SQ17vIQTswVS2YfYGv-e-14" edge="1">
          <mxGeometry relative="1" as="geometry">
            <mxPoint x="100" y="160" as="sourcePoint" />
          </mxGeometry>
        </mxCell>
        <mxCell id="SQ17vIQTswVS2YfYGv-e-13" style="edgeStyle=orthogonalEdgeStyle;rounded=0;orthogonalLoop=1;jettySize=auto;html=1;" parent="SQ17vIQTswVS2YfYGv-e-8" source="SQ17vIQTswVS2YfYGv-e-14" target="SQ17vIQTswVS2YfYGv-e-15" edge="1">
          <mxGeometry relative="1" as="geometry" />
        </mxCell>
        <mxCell id="SQ17vIQTswVS2YfYGv-e-14" value="sapgateway" style="rounded=1;whiteSpace=wrap;html=1;fontSize=12;glass=0;strokeWidth=1;shadow=0;fillColor=#fff2cc;strokeColor=#d6b656;" parent="SQ17vIQTswVS2YfYGv-e-8" vertex="1">
          <mxGeometry x="40" y="190" width="120" height="40" as="geometry" />
        </mxCell>
        <mxCell id="SQ17vIQTswVS2YfYGv-e-15" value="sap&amp;nbsp;byd" style="rounded=1;whiteSpace=wrap;html=1;fontSize=12;glass=0;strokeWidth=1;shadow=0;fillColor=#ffe6cc;strokeColor=#d79b00;" parent="SQ17vIQTswVS2YfYGv-e-8" vertex="1">
          <mxGeometry x="40" y="260" width="120" height="40" as="geometry" />
        </mxCell>
        <mxCell id="aVVfKonLKmN3V_n5aXGs-0" value="方案一" style="swimlane;whiteSpace=wrap;html=1;" vertex="1" parent="WIyWlLk6GJQsqaUBKTNV-1">
          <mxGeometry x="328" y="713" width="200" height="322" as="geometry" />
        </mxCell>
        <mxCell id="aVVfKonLKmN3V_n5aXGs-1" style="edgeStyle=orthogonalEdgeStyle;rounded=0;orthogonalLoop=1;jettySize=auto;html=1;entryX=0.5;entryY=0;entryDx=0;entryDy=0;" edge="1" parent="aVVfKonLKmN3V_n5aXGs-0" source="aVVfKonLKmN3V_n5aXGs-2" target="aVVfKonLKmN3V_n5aXGs-4">
          <mxGeometry relative="1" as="geometry" />
        </mxCell>
        <mxCell id="aVVfKonLKmN3V_n5aXGs-2" value="外部系統" style="rounded=1;whiteSpace=wrap;html=1;fontSize=12;glass=0;strokeWidth=1;shadow=0;fillColor=#dae8fc;strokeColor=#6c8ebf;" vertex="1" parent="aVVfKonLKmN3V_n5aXGs-0">
          <mxGeometry x="40" y="50" width="120" height="40" as="geometry" />
        </mxCell>
        <mxCell id="aVVfKonLKmN3V_n5aXGs-3" style="edgeStyle=orthogonalEdgeStyle;rounded=0;orthogonalLoop=1;jettySize=auto;html=1;" edge="1" parent="aVVfKonLKmN3V_n5aXGs-0" source="aVVfKonLKmN3V_n5aXGs-4" target="aVVfKonLKmN3V_n5aXGs-6">
          <mxGeometry relative="1" as="geometry" />
        </mxCell>
        <mxCell id="aVVfKonLKmN3V_n5aXGs-4" value="omework(byd數據門戶)" style="rounded=1;whiteSpace=wrap;html=1;fontSize=12;glass=0;strokeWidth=1;shadow=0;fillColor=#d5e8d4;strokeColor=#82b366;" vertex="1" parent="aVVfKonLKmN3V_n5aXGs-0">
          <mxGeometry x="40" y="120" width="120" height="40" as="geometry" />
        </mxCell>
        <mxCell id="aVVfKonLKmN3V_n5aXGs-5" style="edgeStyle=orthogonalEdgeStyle;rounded=0;orthogonalLoop=1;jettySize=auto;html=1;" edge="1" parent="aVVfKonLKmN3V_n5aXGs-0" source="aVVfKonLKmN3V_n5aXGs-6" target="aVVfKonLKmN3V_n5aXGs-7">
          <mxGeometry relative="1" as="geometry" />
        </mxCell>
        <mxCell id="aVVfKonLKmN3V_n5aXGs-6" value="sapgateway" style="rounded=1;whiteSpace=wrap;html=1;fontSize=12;glass=0;strokeWidth=1;shadow=0;fillColor=#fff2cc;strokeColor=#d6b656;" vertex="1" parent="aVVfKonLKmN3V_n5aXGs-0">
          <mxGeometry x="40" y="190" width="120" height="40" as="geometry" />
        </mxCell>
        <mxCell id="aVVfKonLKmN3V_n5aXGs-7" value="sap&amp;nbsp;byd" style="rounded=1;whiteSpace=wrap;html=1;fontSize=12;glass=0;strokeWidth=1;shadow=0;fillColor=#ffe6cc;strokeColor=#d79b00;" vertex="1" parent="aVVfKonLKmN3V_n5aXGs-0">
          <mxGeometry x="40" y="260" width="120" height="40" as="geometry" />
        </mxCell>
        <mxCell id="aVVfKonLKmN3V_n5aXGs-8" value="方案二" style="swimlane;whiteSpace=wrap;html=1;" vertex="1" parent="WIyWlLk6GJQsqaUBKTNV-1">
          <mxGeometry x="568" y="713" width="200" height="322" as="geometry" />
        </mxCell>
        <mxCell id="aVVfKonLKmN3V_n5aXGs-9" value="外部系統" style="rounded=1;whiteSpace=wrap;html=1;fontSize=12;glass=0;strokeWidth=1;shadow=0;fillColor=#dae8fc;strokeColor=#6c8ebf;" vertex="1" parent="aVVfKonLKmN3V_n5aXGs-8">
          <mxGeometry x="40" y="50" width="120" height="40" as="geometry" />
        </mxCell>
        <mxCell id="aVVfKonLKmN3V_n5aXGs-10" style="edgeStyle=orthogonalEdgeStyle;rounded=0;orthogonalLoop=1;jettySize=auto;html=1;exitX=0.5;exitY=1;exitDx=0;exitDy=0;" edge="1" parent="aVVfKonLKmN3V_n5aXGs-8" source="aVVfKonLKmN3V_n5aXGs-9" target="aVVfKonLKmN3V_n5aXGs-12">
          <mxGeometry relative="1" as="geometry">
            <mxPoint x="100" y="160" as="sourcePoint" />
          </mxGeometry>
        </mxCell>
        <mxCell id="aVVfKonLKmN3V_n5aXGs-11" style="edgeStyle=orthogonalEdgeStyle;rounded=0;orthogonalLoop=1;jettySize=auto;html=1;" edge="1" parent="aVVfKonLKmN3V_n5aXGs-8" source="aVVfKonLKmN3V_n5aXGs-12" target="aVVfKonLKmN3V_n5aXGs-13">
          <mxGeometry relative="1" as="geometry" />
        </mxCell>
        <mxCell id="aVVfKonLKmN3V_n5aXGs-12" value="sapgateway" style="rounded=1;whiteSpace=wrap;html=1;fontSize=12;glass=0;strokeWidth=1;shadow=0;fillColor=#fff2cc;strokeColor=#d6b656;" vertex="1" parent="aVVfKonLKmN3V_n5aXGs-8">
          <mxGeometry x="40" y="190" width="120" height="40" as="geometry" />
        </mxCell>
        <mxCell id="aVVfKonLKmN3V_n5aXGs-13" value="sap&amp;nbsp;byd" style="rounded=1;whiteSpace=wrap;html=1;fontSize=12;glass=0;strokeWidth=1;shadow=0;fillColor=#ffe6cc;strokeColor=#d79b00;" vertex="1" parent="aVVfKonLKmN3V_n5aXGs-8">
          <mxGeometry x="40" y="260" width="120" height="40" as="geometry" />
        </mxCell>
      </root>
    </mxGraphModel>
  </diagram>
</mxfile>
